<?xml version="1.0" encoding="UTF-8" standalone="no"?>
<svg
   xmlns:dc="http://purl.org/dc/elements/1.1/"
   xmlns:cc="http://creativecommons.org/ns#"
   xmlns:rdf="http://www.w3.org/1999/02/22-rdf-syntax-ns#"
   xmlns:svg="http://www.w3.org/2000/svg"
   xmlns="http://www.w3.org/2000/svg"
   xmlns:sodipodi="http://sodipodi.sourceforge.net/DTD/sodipodi-0.dtd"
   xmlns:inkscape="http://www.inkscape.org/namespaces/inkscape"
   viewBox="0 -256 1920 1408"
   id="svg3001"
   version="1.1"
   inkscape:version="0.92.2 (5c3e80d, 2017-08-06)"
   width="1920"
   height="1408"
   sodipodi:docname="upload.svg">
  <metadata
     id="metadata3011">
    <rdf:RDF>
      <cc:Work
         rdf:about="">
        <dc:format>image/svg+xml</dc:format>
        <dc:type
           rdf:resource="http://purl.org/dc/dcmitype/StillImage" />
        <dc:title></dc:title>
      </cc:Work>
    </rdf:RDF>
  </metadata>
  <defs
     id="defs3009" />
  <sodipodi:namedview
     pagecolor="#ffffff"
     bordercolor="#666666"
     borderopacity="1"
     objecttolerance="10"
     gridtolerance="10"
     guidetolerance="10"
     inkscape:pageopacity="0"
     inkscape:pageshadow="2"
     inkscape:window-width="1430"
     inkscape:window-height="850"
     id="namedview3007"
     showgrid="false"
     inkscape:zoom="0.13169643"
     inkscape:cx="-292.88134"
     inkscape:cy="630.2373"
     inkscape:window-x="67"
     inkscape:window-y="27"
     inkscape:window-maximized="0"
     inkscape:current-layer="svg3001"
     fit-margin-top="0"
     fit-margin-left="0"
     fit-margin-right="0"
     fit-margin-bottom="0" />
  <g
     transform="matrix(1,0,0,-1,0,1152)"
     id="g3003"
     style="fill:#3497cb;fill-opacity:1">
    <path
       d="m 1280,672 q 0,14 -9,23 l -352,352 q -9,9 -23,9 -14,0 -23,-9 L 522,696 q -10,-12 -10,-24 0,-14 9,-23 9,-9 23,-9 H 768 V 288 q 0,-13 9.5,-22.5 Q 787,256 800,256 h 192 q 13,0 22.5,9.5 9.5,9.5 9.5,22.5 v 352 h 224 q 13,0 22.5,9.5 9.5,9.5 9.5,22.5 z M 1920,384 Q 1920,225 1807.5,112.5 1695,0 1536,0 H 448 Q 263,0 131.5,131.5 0,263 0,448 q 0,130 70,240 70,110 188,165 -2,30 -2,43 0,212 150,362 150,150 362,150 156,0 285.5,-87 129.5,-87 188.5,-231 71,62 166,62 106,0 181,-75 75,-75 75,-181 0,-76 -41,-138 130,-31 213.5,-135.5 Q 1920,518 1920,384 Z"
       id="path3005"
       inkscape:connector-curvature="0"
       style="fill:#3497cb;fill-opacity:1" />
  </g>
</svg>
